# xmcd CD database file
#
# Track frame offsets:
#	150
#	17490
#	39417
#	56695
#
# Disc length: 1047 seconds
#
# Revision: 0
# Processed by: cddbd v1.5.1PL0 Copyright (c) Steve Scherf et al.
# Submitted via: CDex 1.51
#
DISCID=27041504
DTITLE=手塚国光 - Never Surrender
DYEAR=1900
DGENRE=Pop
TTITLE0=Never Surrender
TTITLE1=ever
TTITLE2=Never Surrender（Original Karaoke）
TTITLE3=ever（Original Karaoke）
EXTD=
EXTT0=
EXTT1=
EXTT2=
EXTT3=
PLAYORDER=
